C:/Program Files/Krita (x64)/bin/ffmpeg.exe -hide_banner -y -y -r 24 -start_number 0 -start_number_range 1 -i C:/Users/laura_5kd4n05/Desktop/theGame/game/frame%04d.png -i C:/Users/laura_5kd4n05/Desktop/theGame/game/KritaTempPalettegen_%06d.png -lavfi [0:v][1:v]paletteuse=dither=sierra2_4a:diff_mode=none -f gif -loop 0 -gifflags +transdiff C:/Users/laura_5kd4n05/Desktop/theGame/game/anim.gif
=====================================================
Input #0, image2, from 'C:/Users/laura_5kd4n05/Desktop/theGame/game/frame%04d.png':
  Duration: 00:00:00.64, start: 0.000000, bitrate: N/A
  Stream #0:0: Video: png, rgba(pc, gbr/unknown/unknown), 100x117 [SAR 23622:23622 DAR 100:117], 25 fps, 25 tbr, 25 tbn
Input #1, image2, from 'C:/Users/laura_5kd4n05/Desktop/theGame/game/KritaTempPalettegen_%06d.png':
  Duration: 00:00:00.04, start: 0.000000, bitrate: N/A
  Stream #1:0: Video: png, rgba(pc, gbr/unknown/unknown), 16x16 [SAR 1:1 DAR 1:1], 25 fps, 25 tbr, 25 tbn
Stream mapping:
  Stream #0:0 (png) -> paletteuse
  Stream #1:0 (png) -> paletteuse
  paletteuse:default -> Stream #0:0 (gif)
Press [q] to stop, [?] for help
Output #0, gif, to 'C:/Users/laura_5kd4n05/Desktop/theGame/game/anim.gif':
  Metadata:
    encoder         : Lavf61.7.100
  Stream #0:0: Video: gif, pal8(pc, gbr/unknown/unknown, progressive), 100x117 [SAR 1:1 DAR 100:117], q=2-31, 200 kb/s, 24 fps, 100 tbn
      Metadata:
        encoder         : Lavc61.19.101 gif
[out#0/gif @ 000002019aa87380] video:24KiB audio:0KiB subtitle:0KiB other streams:0KiB global headers:0KiB muxing overhead: 0.081364%
frame=   16 fps=0.0 q=-0.0 Lsize=      24KiB time=00:00:00.66 bitrate= 295.2kbits/s speed=  10x    
